<svg width="192" height="192" viewBox="0 0 192 192" fill="none" xmlns="http://www.w3.org/2000/svg">
<rect width="192" height="192" fill="#EDEDED"/>
<path d="M92.5998 144C82.6963 144.03 73.1432 140.319 65.8352 133.604C58.5272 126.888 53.9982 117.659 53.1464 107.745C52.2946 97.8317 55.1822 87.9586 61.2365 80.0841C67.2908 72.2096 76.0696 66.9089 85.8318 65.2333C117.98 59 126.44 56.0533 137.72 42C143.36 53.3333 149 65.6866 149 87.3333C149 118.5 122.041 144 92.5998 144Z" fill="#38C667" stroke="#146830" stroke-width="6" stroke-linecap="round" stroke-linejoin="round"/>
<path d="M42 149C42 132.333 52.4273 119.222 70.6327 115.667C84.2727 113 98.3636 104.556 104 99" fill="#38C667"/>
<path d="M42 149C42 132.333 52.4273 119.222 70.6327 115.667C84.2727 113 98.3636 104.556 104 99" stroke="#146830" stroke-width="6" stroke-linecap="round" stroke-linejoin="round"/>
</svg>
